<svg xmlns="http://www.w3.org/2000/svg" width="1200" height="620" viewBox="0 0 1200 620" role="img" aria-labelledby="title desc">
<title>좋은 chunk와 나쁜 chunk</title><desc>RAG 품질은 값이 아니라 구조를 검색할 때 올라간다</desc>
<defs><linearGradient id="bg" x1="0" y1="0" x2="1" y2="1"><stop offset="0" stop-color="#020617"/><stop offset="1" stop-color="#111827"/></linearGradient><filter id="glow"><feGaussianBlur stdDeviation="3" result="b"/><feMerge><feMergeNode in="b"/><feMergeNode in="SourceGraphic"/></feMerge></filter></defs>
<rect width="1200" height="620" rx="28" fill="url(#bg)"/>
<g opacity="0.18" stroke="#334155" stroke-width="1"><line x1="0" y1="0" x2="0" y2="620"/><line x1="60" y1="0" x2="60" y2="620"/><line x1="120" y1="0" x2="120" y2="620"/><line x1="180" y1="0" x2="180" y2="620"/><line x1="240" y1="0" x2="240" y2="620"/><line x1="300" y1="0" x2="300" y2="620"/><line x1="360" y1="0" x2="360" y2="620"/><line x1="420" y1="0" x2="420" y2="620"/><line x1="480" y1="0" x2="480" y2="620"/><line x1="540" y1="0" x2="540" y2="620"/><line x1="600" y1="0" x2="600" y2="620"/><line x1="660" y1="0" x2="660" y2="620"/><line x1="720" y1="0" x2="720" y2="620"/><line x1="780" y1="0" x2="780" y2="620"/><line x1="840" y1="0" x2="840" y2="620"/><line x1="900" y1="0" x2="900" y2="620"/><line x1="960" y1="0" x2="960" y2="620"/><line x1="1020" y1="0" x2="1020" y2="620"/><line x1="1080" y1="0" x2="1080" y2="620"/><line x1="1140" y1="0" x2="1140" y2="620"/><line x1="1200" y1="0" x2="1200" y2="620"/><line x1="0" y1="0" x2="1200" y2="0"/><line x1="0" y1="60" x2="1200" y2="60"/><line x1="0" y1="120" x2="1200" y2="120"/><line x1="0" y1="180" x2="1200" y2="180"/><line x1="0" y1="240" x2="1200" y2="240"/><line x1="0" y1="300" x2="1200" y2="300"/><line x1="0" y1="360" x2="1200" y2="360"/><line x1="0" y1="420" x2="1200" y2="420"/><line x1="0" y1="480" x2="1200" y2="480"/><line x1="0" y1="540" x2="1200" y2="540"/><line x1="0" y1="600" x2="1200" y2="600"/></g>
<text x="70" y="80" fill="#e5e7eb" font-family="Inter, Apple SD Gothic Neo, sans-serif" font-size="34" font-weight="700">좋은 chunk와 나쁜 chunk</text>
<text x="72" y="118" fill="#94a3b8" font-family="Inter, Apple SD Gothic Neo, sans-serif" font-size="18">RAG 품질은 값이 아니라 구조를 검색할 때 올라간다</text>
<defs><marker id="arr" markerWidth="12" markerHeight="12" refX="10" refY="6" orient="auto"><path d="M2,2 L10,6 L2,10 Z" fill="#38bdf8"/></marker></defs><rect x="90" y="190" width="420" height="170" rx="18" fill="#0f172a" stroke="#fb7185" stroke-width="3"/><text x="114" y="228" fill="#f8fafc" font-family="Inter, Apple SD Gothic Neo, sans-serif" font-size="23" font-weight="700">나쁜 chunk</text><text x="114" y="260" fill="#cbd5e1" font-family="Inter, Apple SD Gothic Neo, sans-serif" font-size="16">“12.4” — 값만 남고 의미가 사라짐</text><rect x="690" y="190" width="420" height="170" rx="18" fill="#0f172a" stroke="#34d399" stroke-width="3"/><text x="714" y="228" fill="#f8fafc" font-family="Inter, Apple SD Gothic Neo, sans-serif" font-size="23" font-weight="700">좋은 chunk</text><text x="714" y="260" fill="#cbd5e1" font-family="Inter, Apple SD Gothic Neo, sans-serif" font-size="16">섹션·행·열·단위·페이지·근거 포함</text><rect x="390" y="430" width="420" height="80" rx="18" fill="#0f172a" stroke="#22d3ee" stroke-width="3"/><text x="414" y="468" fill="#f8fafc" font-family="Inter, Apple SD Gothic Neo, sans-serif" font-size="23" font-weight="700">Retrieval & Citation</text><text x="414" y="500" fill="#cbd5e1" font-family="Inter, Apple SD Gothic Neo, sans-serif" font-size="16">검색과 인용이 같은 근거를 가리킴</text><path d="M510,275.0 C600.0,275.0 600.0,275.0 690,275.0" fill="none" stroke="#38bdf8" stroke-width="4" marker-end="url(#arr)"/><path d="M1110,275.0 C750.0,275.0 750.0,470.0 390,470.0" fill="none" stroke="#38bdf8" stroke-width="4" marker-end="url(#arr)"/>
</svg>