<svg xmlns="http://www.w3.org/2000/svg" width="1200" height="620" viewBox="0 0 1200 620" role="img" aria-labelledby="title desc">
<title>최소 에이전트 하네스</title><desc>운영 가능한 AI 에이전트를 위한 6개 레이어</desc>
<defs><linearGradient id="bg" x1="0" y1="0" x2="1" y2="1"><stop offset="0" stop-color="#020617"/><stop offset="1" stop-color="#111827"/></linearGradient><filter id="glow"><feGaussianBlur stdDeviation="3" result="b"/><feMerge><feMergeNode in="b"/><feMergeNode in="SourceGraphic"/></feMerge></filter></defs>
<rect width="1200" height="620" rx="28" fill="url(#bg)"/>
<g opacity="0.18" stroke="#334155" stroke-width="1"><line x1="0" y1="0" x2="0" y2="620"/><line x1="60" y1="0" x2="60" y2="620"/><line x1="120" y1="0" x2="120" y2="620"/><line x1="180" y1="0" x2="180" y2="620"/><line x1="240" y1="0" x2="240" y2="620"/><line x1="300" y1="0" x2="300" y2="620"/><line x1="360" y1="0" x2="360" y2="620"/><line x1="420" y1="0" x2="420" y2="620"/><line x1="480" y1="0" x2="480" y2="620"/><line x1="540" y1="0" x2="540" y2="620"/><line x1="600" y1="0" x2="600" y2="620"/><line x1="660" y1="0" x2="660" y2="620"/><line x1="720" y1="0" x2="720" y2="620"/><line x1="780" y1="0" x2="780" y2="620"/><line x1="840" y1="0" x2="840" y2="620"/><line x1="900" y1="0" x2="900" y2="620"/><line x1="960" y1="0" x2="960" y2="620"/><line x1="1020" y1="0" x2="1020" y2="620"/><line x1="1080" y1="0" x2="1080" y2="620"/><line x1="1140" y1="0" x2="1140" y2="620"/><line x1="1200" y1="0" x2="1200" y2="620"/><line x1="0" y1="0" x2="1200" y2="0"/><line x1="0" y1="60" x2="1200" y2="60"/><line x1="0" y1="120" x2="1200" y2="120"/><line x1="0" y1="180" x2="1200" y2="180"/><line x1="0" y1="240" x2="1200" y2="240"/><line x1="0" y1="300" x2="1200" y2="300"/><line x1="0" y1="360" x2="1200" y2="360"/><line x1="0" y1="420" x2="1200" y2="420"/><line x1="0" y1="480" x2="1200" y2="480"/><line x1="0" y1="540" x2="1200" y2="540"/><line x1="0" y1="600" x2="1200" y2="600"/></g>
<text x="70" y="80" fill="#e5e7eb" font-family="Inter, Apple SD Gothic Neo, sans-serif" font-size="34" font-weight="700">최소 에이전트 하네스</text>
<text x="72" y="118" fill="#94a3b8" font-family="Inter, Apple SD Gothic Neo, sans-serif" font-size="18">운영 가능한 AI 에이전트를 위한 6개 레이어</text>
<defs><marker id="arr" markerWidth="12" markerHeight="12" refX="10" refY="6" orient="auto"><path d="M2,2 L10,6 L2,10 Z" fill="#38bdf8"/></marker></defs><rect x="70" y="180" width="280" height="90" rx="18" fill="#0f172a" stroke="#22d3ee" stroke-width="3"/><text x="94" y="218" fill="#f8fafc" font-family="Inter, Apple SD Gothic Neo, sans-serif" font-size="23" font-weight="700">Workspace</text><text x="94" y="250" fill="#cbd5e1" font-family="Inter, Apple SD Gothic Neo, sans-serif" font-size="16">격리된 작업 공간</text><rect x="460" y="180" width="280" height="90" rx="18" fill="#0f172a" stroke="#fb7185" stroke-width="3"/><text x="484" y="218" fill="#f8fafc" font-family="Inter, Apple SD Gothic Neo, sans-serif" font-size="23" font-weight="700">Permission</text><text x="484" y="250" fill="#cbd5e1" font-family="Inter, Apple SD Gothic Neo, sans-serif" font-size="16">읽기·쓰기·전송 분리</text><rect x="850" y="180" width="280" height="90" rx="18" fill="#0f172a" stroke="#a78bfa" stroke-width="3"/><text x="874" y="218" fill="#f8fafc" font-family="Inter, Apple SD Gothic Neo, sans-serif" font-size="23" font-weight="700">Session Log</text><text x="874" y="250" fill="#cbd5e1" font-family="Inter, Apple SD Gothic Neo, sans-serif" font-size="16">도구 호출과 근거 기록</text><rect x="70" y="360" width="280" height="90" rx="18" fill="#0f172a" stroke="#34d399" stroke-width="3"/><text x="94" y="398" fill="#f8fafc" font-family="Inter, Apple SD Gothic Neo, sans-serif" font-size="23" font-weight="700">Checkpoint</text><text x="94" y="430" fill="#cbd5e1" font-family="Inter, Apple SD Gothic Neo, sans-serif" font-size="16">중단·재시작 지점</text><rect x="460" y="360" width="280" height="90" rx="18" fill="#0f172a" stroke="#fbbf24" stroke-width="3"/><text x="484" y="398" fill="#f8fafc" font-family="Inter, Apple SD Gothic Neo, sans-serif" font-size="23" font-weight="700">Evaluator</text><text x="484" y="430" fill="#cbd5e1" font-family="Inter, Apple SD Gothic Neo, sans-serif" font-size="16">테스트와 품질 기준</text><rect x="850" y="360" width="280" height="90" rx="18" fill="#0f172a" stroke="#fb923c" stroke-width="3"/><text x="874" y="398" fill="#f8fafc" font-family="Inter, Apple SD Gothic Neo, sans-serif" font-size="23" font-weight="700">Human Approval</text><text x="874" y="430" fill="#cbd5e1" font-family="Inter, Apple SD Gothic Neo, sans-serif" font-size="16">위험 행동 전 승인</text><path d="M350,225.0 C405.0,225.0 405.0,225.0 460,225.0" fill="none" stroke="#38bdf8" stroke-width="4" marker-end="url(#arr)"/><path d="M740,225.0 C795.0,225.0 795.0,225.0 850,225.0" fill="none" stroke="#38bdf8" stroke-width="4" marker-end="url(#arr)"/><path d="M1130,225.0 C600.0,225.0 600.0,405.0 70,405.0" fill="none" stroke="#38bdf8" stroke-width="4" marker-end="url(#arr)"/><path d="M350,405.0 C405.0,405.0 405.0,405.0 460,405.0" fill="none" stroke="#38bdf8" stroke-width="4" marker-end="url(#arr)"/><path d="M740,405.0 C795.0,405.0 795.0,405.0 850,405.0" fill="none" stroke="#38bdf8" stroke-width="4" marker-end="url(#arr)"/>
</svg>