<svg xmlns="http://www.w3.org/2000/svg" width="1536" height="1024" viewBox="0 0 1536 1024">
  <defs>
    <radialGradient id="g" cx="50%" cy="40%" r="70%"><stop offset="0%" stop-color="#ef4444" stop-opacity="0.35"/><stop offset="55%" stop-color="#111827"/><stop offset="100%" stop-color="#020617"/></radialGradient>
    <filter id="shadow" x="-20%" y="-20%" width="140%" height="140%"><feDropShadow dx="0" dy="24" stdDeviation="24" flood-color="#000" flood-opacity="0.35"/></filter>
  </defs>
  <rect width="1536" height="1024" fill="url(#g)"/>
  <g filter="url(#shadow)">
    <rect x="120" y="190" width="1296" height="560" rx="48" fill="rgba(15,23,42,0.72)" stroke="rgba(255,255,255,0.12)"/>
    <rect x="110" y="330" width="210" height="120" rx="28" fill="rgba(255,255,255,0.08)" stroke="#ef4444" stroke-width="3"/><text x="215" y="400" text-anchor="middle" font-size="28" font-family="Inter,Arial" fill="#f8fafc">Intent</text><path d="M335 390 L410 390" stroke="#f59e0b" stroke-width="6" stroke-linecap="round"/><path d="M398 374 L418 390 L398 406" fill="none" stroke="#f59e0b" stroke-width="6" stroke-linecap="round" stroke-linejoin="round"/><rect x="425" y="330" width="210" height="120" rx="28" fill="rgba(255,255,255,0.08)" stroke="#ef4444" stroke-width="3"/><text x="530" y="400" text-anchor="middle" font-size="28" font-family="Inter,Arial" fill="#f8fafc">Policy</text><path d="M650 390 L725 390" stroke="#f59e0b" stroke-width="6" stroke-linecap="round"/><path d="M713 374 L733 390 L713 406" fill="none" stroke="#f59e0b" stroke-width="6" stroke-linecap="round" stroke-linejoin="round"/><rect x="740" y="330" width="210" height="120" rx="28" fill="rgba(255,255,255,0.08)" stroke="#ef4444" stroke-width="3"/><text x="845" y="400" text-anchor="middle" font-size="28" font-family="Inter,Arial" fill="#f8fafc">Approval</text><path d="M965 390 L1040 390" stroke="#f59e0b" stroke-width="6" stroke-linecap="round"/><path d="M1028 374 L1048 390 L1028 406" fill="none" stroke="#f59e0b" stroke-width="6" stroke-linecap="round" stroke-linejoin="round"/><rect x="1055" y="330" width="210" height="120" rx="28" fill="rgba(255,255,255,0.08)" stroke="#ef4444" stroke-width="3"/><text x="1160" y="400" text-anchor="middle" font-size="28" font-family="Inter,Arial" fill="#f8fafc">Audit</text>
  </g>
  <circle cx="1320" cy="190" r="90" fill="#f59e0b" opacity="0.18"/>
  <circle cx="210" cy="820" r="130" fill="#ef4444" opacity="0.12"/>
</svg>