<svg xmlns="http://www.w3.org/2000/svg" width="1400" height="788" viewBox="0 0 1400 788" role="img"><title>hero.svg</title><defs><pattern id="grid" width="40" height="40" patternUnits="userSpaceOnUse"><path d="M 40 0 L 0 0 0 40" fill="none" class="grid"/></pattern><marker id="arrow" markerWidth="10" markerHeight="10" refX="8" refY="3" orient="auto" markerUnits="strokeWidth"><path d="M0,0 L0,6 L9,3 z" fill="#cbd5e1"/></marker><filter id="glow"><feGaussianBlur stdDeviation="3" result="coloredBlur"/><feMerge><feMergeNode in="coloredBlur"/><feMergeNode in="SourceGraphic"/></feMerge></filter></defs><style>
.bg{fill:#050816}.grid{stroke:#1d2842;stroke-width:1;opacity:.55}.title{font:800 34px -apple-system,BlinkMacSystemFont,"Segoe UI",sans-serif;fill:#f8fafc}.sub{font:500 18px -apple-system,BlinkMacSystemFont,"Segoe UI",sans-serif;fill:#94a3b8}.label{font:800 18px -apple-system,BlinkMacSystemFont,"Segoe UI",sans-serif;fill:#e2e8f0}.small{font:500 13px -apple-system,BlinkMacSystemFont,"Segoe UI",sans-serif;fill:#cbd5e1}.tiny{font:500 11px -apple-system,BlinkMacSystemFont,"Segoe UI",sans-serif;fill:#94a3b8}.note{font:700 15px -apple-system,BlinkMacSystemFont,"Segoe UI",sans-serif;fill:#f8fafc}.box{stroke-width:2;rx:18;opacity:.92}.cyan{fill:#0e7490;stroke:#22d3ee}.green{fill:#047857;stroke:#34d399}.violet{fill:#6d28d9;stroke:#a78bfa}.amber{fill:#92400e;stroke:#fbbf24}.rose{fill:#9f1239;stroke:#fb7185}.slate{fill:#1e293b;stroke:#94a3b8}.arrow{stroke:#cbd5e1;stroke-width:3;fill:none;marker-end:url(#arrow)}.dash{stroke-dasharray:8 7}.muted{opacity:.35}
</style><rect width="100%" height="100%" class="bg"/><rect width="100%" height="100%" fill="url(#grid)"/><text x="70" y="95" class="title">작은 모델은 싸서 쓰는 게 아니다</text><text x="70" y="132" class="sub">빠르고 가까운 모델은 제품 구조를 다르게 만든다</text><rect x="120" y="235" width="300" height="160" class="box violet"/><text x="175" y="320" class="label">Frontier Model</text><path d="M450 315 L570 315" class="arrow"/><rect x="600" y="185" width="280" height="260" class="box cyan"/><text x="655" y="285" class="label">Router</text><text x="655" y="320" class="small">판단 · 분배 · 회수</text><path d="M910 260 L1030 220" class="arrow"/><path d="M910 315 L1030 315" class="arrow"/><path d="M910 370 L1030 410" class="arrow"/><rect x="1060" y="180" width="230" height="80" class="box green"/><text x="1105" y="230" class="label">Extract</text><rect x="1060" y="295" width="230" height="80" class="box amber"/><text x="1105" y="345" class="label">Filter</text><rect x="1060" y="410" width="230" height="80" class="box rose"/><text x="1105" y="460" class="label">Classify</text></svg>