<svg xmlns="http://www.w3.org/2000/svg" width="1200" height="620" viewBox="0 0 1200 620" role="img" aria-labelledby="title desc">
<title>작은 모델 라우팅 전략</title><desc>큰 모델에게 보내기 전에 가까운 모델이 정리한다</desc>
<defs><linearGradient id="bg" x1="0" y1="0" x2="1" y2="1"><stop offset="0" stop-color="#020617"/><stop offset="1" stop-color="#111827"/></linearGradient><filter id="glow"><feGaussianBlur stdDeviation="3" result="b"/><feMerge><feMergeNode in="b"/><feMergeNode in="SourceGraphic"/></feMerge></filter></defs>
<rect width="1200" height="620" rx="28" fill="url(#bg)"/>
<g opacity="0.18" stroke="#334155" stroke-width="1"><line x1="0" y1="0" x2="0" y2="620"/><line x1="60" y1="0" x2="60" y2="620"/><line x1="120" y1="0" x2="120" y2="620"/><line x1="180" y1="0" x2="180" y2="620"/><line x1="240" y1="0" x2="240" y2="620"/><line x1="300" y1="0" x2="300" y2="620"/><line x1="360" y1="0" x2="360" y2="620"/><line x1="420" y1="0" x2="420" y2="620"/><line x1="480" y1="0" x2="480" y2="620"/><line x1="540" y1="0" x2="540" y2="620"/><line x1="600" y1="0" x2="600" y2="620"/><line x1="660" y1="0" x2="660" y2="620"/><line x1="720" y1="0" x2="720" y2="620"/><line x1="780" y1="0" x2="780" y2="620"/><line x1="840" y1="0" x2="840" y2="620"/><line x1="900" y1="0" x2="900" y2="620"/><line x1="960" y1="0" x2="960" y2="620"/><line x1="1020" y1="0" x2="1020" y2="620"/><line x1="1080" y1="0" x2="1080" y2="620"/><line x1="1140" y1="0" x2="1140" y2="620"/><line x1="1200" y1="0" x2="1200" y2="620"/><line x1="0" y1="0" x2="1200" y2="0"/><line x1="0" y1="60" x2="1200" y2="60"/><line x1="0" y1="120" x2="1200" y2="120"/><line x1="0" y1="180" x2="1200" y2="180"/><line x1="0" y1="240" x2="1200" y2="240"/><line x1="0" y1="300" x2="1200" y2="300"/><line x1="0" y1="360" x2="1200" y2="360"/><line x1="0" y1="420" x2="1200" y2="420"/><line x1="0" y1="480" x2="1200" y2="480"/><line x1="0" y1="540" x2="1200" y2="540"/><line x1="0" y1="600" x2="1200" y2="600"/></g>
<text x="70" y="80" fill="#e5e7eb" font-family="Inter, Apple SD Gothic Neo, sans-serif" font-size="34" font-weight="700">작은 모델 라우팅 전략</text>
<text x="72" y="118" fill="#94a3b8" font-family="Inter, Apple SD Gothic Neo, sans-serif" font-size="18">큰 모델에게 보내기 전에 가까운 모델이 정리한다</text>
<defs><marker id="arr" markerWidth="12" markerHeight="12" refX="10" refY="6" orient="auto"><path d="M2,2 L10,6 L2,10 Z" fill="#38bdf8"/></marker></defs><rect x="70" y="210" width="240" height="90" rx="18" fill="#0f172a" stroke="#94a3b8" stroke-width="3"/><text x="94" y="248" fill="#f8fafc" font-family="Inter, Apple SD Gothic Neo, sans-serif" font-size="23" font-weight="700">Raw input</text><text x="94" y="280" fill="#cbd5e1" font-family="Inter, Apple SD Gothic Neo, sans-serif" font-size="16">문서·로그·세션</text><rect x="370" y="130" width="260" height="90" rx="18" fill="#0f172a" stroke="#34d399" stroke-width="3"/><text x="394" y="168" fill="#f8fafc" font-family="Inter, Apple SD Gothic Neo, sans-serif" font-size="23" font-weight="700">Small/local model</text><text x="394" y="200" fill="#cbd5e1" font-family="Inter, Apple SD Gothic Neo, sans-serif" font-size="16">분류·마스킹·정규화</text><rect x="370" y="300" width="260" height="90" rx="18" fill="#0f172a" stroke="#22d3ee" stroke-width="3"/><text x="394" y="338" fill="#f8fafc" font-family="Inter, Apple SD Gothic Neo, sans-serif" font-size="23" font-weight="700">Local index</text><text x="394" y="370" fill="#cbd5e1" font-family="Inter, Apple SD Gothic Neo, sans-serif" font-size="16">세션 검색·캐시</text><rect x="720" y="210" width="260" height="90" rx="18" fill="#0f172a" stroke="#a78bfa" stroke-width="3"/><text x="744" y="248" fill="#f8fafc" font-family="Inter, Apple SD Gothic Neo, sans-serif" font-size="23" font-weight="700">Large model</text><text x="744" y="280" fill="#cbd5e1" font-family="Inter, Apple SD Gothic Neo, sans-serif" font-size="16">계획·판단·최종 답변</text><rect x="1010" y="210" width="130" height="90" rx="18" fill="#0f172a" stroke="#fbbf24" stroke-width="3"/><text x="1034" y="248" fill="#f8fafc" font-family="Inter, Apple SD Gothic Neo, sans-serif" font-size="23" font-weight="700">Output</text><text x="1034" y="280" fill="#cbd5e1" font-family="Inter, Apple SD Gothic Neo, sans-serif" font-size="16">검증된 응답</text><path d="M310,255.0 C340.0,255.0 340.0,175.0 370,175.0" fill="none" stroke="#38bdf8" stroke-width="4" marker-end="url(#arr)"/><path d="M630,175.0 C500.0,175.0 500.0,345.0 370,345.0" fill="none" stroke="#38bdf8" stroke-width="4" marker-end="url(#arr)"/><path d="M630,345.0 C675.0,345.0 675.0,255.0 720,255.0" fill="none" stroke="#38bdf8" stroke-width="4" marker-end="url(#arr)"/><path d="M980,255.0 C995.0,255.0 995.0,255.0 1010,255.0" fill="none" stroke="#38bdf8" stroke-width="4" marker-end="url(#arr)"/>
</svg>